<svg xmlns="http://www.w3.org/2000/svg" version="1.1" xmlns:xlink="http://www.w3.org/1999/xlink" xmlns:svgjs="http://svgjs.dev/svgjs" width="1500" height="321" viewBox="0 0 1500 321"><g transform="matrix(1,0,0,1,-0.9090909090909918,-0.36773367118814804)"><svg viewBox="0 0 396 85" data-background-color="#ffffff" preserveAspectRatio="xMidYMid meet" height="321" width="1500" xmlns="http://www.w3.org/2000/svg" xmlns:xlink="http://www.w3.org/1999/xlink"><g id="tight-bounds" transform="matrix(1,0,0,1,0.2400000000000091,0.09737495966041365)"><svg viewBox="0 0 395.52 84.80525008067916" height="84.80525008067916" width="395.52"><g><svg viewBox="0 0 563.5449913919642 120.83225608492545" height="84.80525008067916" width="395.52"><g><rect width="7.225239868817142" height="120.83225608492545" x="141.88551102886137" y="0" fill="#000000" opacity="1" stroke-width="0" stroke="transparent" fill-opacity="1" class="rect-qz-0" data-fill-palette-color="primary" rx="1%" id="qz-0" data-palette-color="#000000"></rect></g><g transform="matrix(1,0,0,1,168.02499139196422,0.3005777514550303)"><svg viewBox="0 0 395.52 120.23110058201539" height="120.23110058201539" width="395.52"><g id="textblocktransform"><svg viewBox="0 0 395.52 120.23110058201539" height="120.23110058201539" width="395.52" id="textblock"><g><svg viewBox="0 0 395.52 80.1192857142857" height="80.1192857142857" width="395.52"><g transform="matrix(1,0,0,1,0,0)"><svg width="395.52" viewBox="2.4 -35.9 179.18 36.3" height="80.1192857142857" data-palette-color="#000000"><path d="M18.7-18.9L30.15-18.9 30.15-2.8 30.1-2.8 30.15-2.65Q26.1 0.4 19.7 0.4L19.7 0.4Q11.9 0.4 7.15-4.23 2.4-8.85 2.4-16.9L2.4-16.9Q2.4-24.55 7.13-29.43 11.85-34.3 19.05-34.3L19.05-34.3Q25-34.3 28.9-32L28.9-32 28.9-27.65Q24.8-30.35 19.4-30.35L19.4-30.35Q13.75-30.35 10.2-26.68 6.65-23 6.65-16.9L6.65-16.9Q6.65-10.65 10.15-7.08 13.65-3.5 19.8-3.5L19.8-3.5Q23.2-3.5 26.1-4.85L26.1-4.85 26.1-15.35 18.7-15.35 18.7-18.9ZM37.15-35.35L41.05-35.35 41.05-20.95Q43.3-25.7 49.05-25.7L49.05-25.7Q52.7-25.7 54.92-23.45 57.15-21.2 57.15-17.35L57.15-17.35 57.15 0 53.2 0 53.2-16.4Q53.2-19.15 51.77-20.65 50.35-22.15 48.05-22.15L48.05-22.15Q45.25-22.15 43.15-20 41.05-17.85 41.05-13.85L41.05-13.85 41.05 0 37.15 0 37.15-35.35ZM77.8-8.45L77.8-11.7 73.4-11.7Q70.2-11.7 68.59-10.45 67-9.2 67-7.3 67-5.4 68.25-4.23 69.5-3.05 71.9-3.05L71.9-3.05Q74.59-3.05 76.2-4.58 77.8-6.1 77.8-8.45L77.8-8.45ZM64.7-20.05L64.7-20.05 64.7-24Q67.55-25.75 72.2-25.75L72.2-25.75Q81.75-25.75 81.75-16.05L81.75-16.05 81.75 0 77.84 0 77.84-3Q75.9 0.25 70.75 0.25L70.75 0.25Q67.2 0.25 65.02-1.85 62.85-3.95 62.85-7.15L62.85-7.15Q62.85-10.8 65.62-12.83 68.4-14.85 73.2-14.85L73.2-14.85 77.8-14.85 77.8-16.15Q77.8-19.15 76.45-20.68 75.09-22.2 71.9-22.2L71.9-22.2Q67.84-22.2 64.7-20.05ZM88.74-25.35L92.64-25.35 92.64-20.9Q94.64-25.6 99.54-25.6L99.54-25.6Q100.44-25.6 100.94-25.5L100.94-25.5 100.94-21.6Q99.89-21.95 98.79-21.95L98.79-21.95Q96.14-21.95 94.39-19.5 92.64-17.05 92.64-13.85L92.64-13.85 92.64 0 88.69 0 88.74-25.35ZM109.29-30.25L109.29-15.85 114.49-15.85Q118.29-15.85 120.44-17.82 122.59-19.8 122.59-22.85L122.59-22.85Q122.59-26.25 120.39-28.25 118.19-30.25 114.14-30.25L114.14-30.25 109.29-30.25ZM105.24 0L105.24-33.7 114.09-33.7Q119.94-33.7 123.31-30.68 126.69-27.65 126.69-22.85L126.69-22.85Q126.69-18.35 123.34-15.38 119.99-12.4 114.49-12.4L114.49-12.4 109.29-12.4 109.29 0 105.24 0ZM134.84-14.3L148.44-14.3 148.44-15.3Q148.44-18.45 146.74-20.33 145.04-22.2 142.04-22.2L142.04-22.2Q139.19-22.2 137.19-20.15 135.19-18.1 134.84-14.3L134.84-14.3ZM150.79-5L150.79-5 150.79-1.3Q147.84 0.25 143.59 0.25L143.59 0.25Q137.84 0.25 134.31-3.28 130.79-6.8 130.79-12.6L130.79-12.6Q130.79-18.65 133.94-22.15 137.09-25.65 142.04-25.65L142.04-25.65Q146.79-25.65 149.59-22.6 152.39-19.55 152.39-13.95L152.39-13.95Q152.39-12.35 152.14-11L152.14-11 134.84-11Q135.29-7.25 137.69-5.25 140.09-3.25 143.99-3.25L143.99-3.25Q148.24-3.25 150.79-5ZM170.83-22.15L163.83-22.15 163.83-7.3Q163.83-3.25 167.63-3.25L167.63-3.25Q169.58-3.25 171.08-4.4L171.08-4.4 171.08-0.65Q169.43 0.25 167.38 0.25L167.38 0.25Q159.88 0.25 159.88-7.4L159.88-7.4 159.88-22.15 155.83-22.15 155.83-25.35 159.88-25.35 159.88-31.65 163.83-31.65 163.83-25.35 170.83-25.35 170.83-22.15ZM180.98 0L177.03 0 177.03-25.35 180.98-25.35 180.98 0ZM177.16-31.48Q176.43-32.2 176.43-33.3 176.43-34.4 177.16-35.15 177.88-35.9 178.98-35.9 180.08-35.9 180.83-35.15 181.58-34.4 181.58-33.3 181.58-32.2 180.83-31.48 180.08-30.75 178.98-30.75 177.88-30.75 177.16-31.48Z" opacity="1" transform="matrix(1,0,0,1,0,0)" fill="#000000" class="wordmark-text-0" data-fill-palette-color="primary" id="text-0"></path></svg></g></svg></g><g transform="matrix(1,0,0,1,0,99.0335262085714)"><svg viewBox="0 0 232.209792 21.19757437344398" height="21.19757437344398" width="232.209792"><g transform="matrix(1,0,0,1,0,0)"><svg width="232.209792" viewBox="5.7 -37.35 518.0999999999999 47.3" height="21.19757437344398" data-palette-color="#61777f"><path d="M29.7-31.8L9.4-31.8 9.4-18.05 27.5-18.05 27.5-14.85 9.4-14.85 9.4 0 5.7 0 5.7-35 29.7-35 29.7-31.8ZM36.1 0L36.1-26.3 39.65-26.3 39.65 0 36.1 0ZM37.9-32.05Q36.8-32.05 36.05-32.8 35.3-33.55 35.3-34.6L35.3-34.6Q35.3-35.6 36.05-36.35 36.8-37.1 37.9-37.1L37.9-37.1Q39-37.1 39.75-36.38 40.5-35.65 40.5-34.65L40.5-34.65Q40.5-33.55 39.75-32.8 39-32.05 37.9-32.05L37.9-32.05ZM62.95-26.5Q67.9-26.5 70.82-23.63 73.75-20.75 73.75-15.25L73.75-15.25 73.75 0 70.2 0 70.2-14.9Q70.2-19 68.15-21.15 66.09-23.3 62.3-23.3L62.3-23.3Q58.05-23.3 55.57-20.78 53.1-18.25 53.1-13.8L53.1-13.8 53.1 0 49.55 0 49.55-26.3 52.95-26.3 52.95-21.45Q54.4-23.85 56.97-25.18 59.55-26.5 62.95-26.5L62.95-26.5ZM103.94-37.1L107.49-37.1 107.49 0 104.09 0 104.09-5.2Q102.49-2.55 99.87-1.15 97.24 0.25 93.94 0.25L93.94 0.25Q90.24 0.25 87.24-1.45 84.24-3.15 82.54-6.2 80.84-9.25 80.84-13.15L80.84-13.15Q80.84-17.05 82.54-20.1 84.24-23.15 87.24-24.83 90.24-26.5 93.94-26.5L93.94-26.5Q97.14-26.5 99.72-25.18 102.29-23.85 103.94-21.3L103.94-21.3 103.94-37.1ZM94.24-2.9Q96.99-2.9 99.22-4.17 101.44-5.45 102.72-7.8 103.99-10.15 103.99-13.15L103.99-13.15Q103.99-16.15 102.72-18.5 101.44-20.85 99.22-22.13 96.99-23.4 94.24-23.4L94.24-23.4Q91.44-23.4 89.22-22.13 86.99-20.85 85.72-18.5 84.44-16.15 84.44-13.15L84.44-13.15Q84.44-10.15 85.72-7.8 86.99-5.45 89.22-4.17 91.44-2.9 94.24-2.9L94.24-2.9ZM149.09-26.3L152.59-26.3 139.44 3.15Q137.84 6.85 135.74 8.4 133.64 9.95 130.69 9.95L130.69 9.95Q128.79 9.95 127.14 9.35 125.49 8.75 124.29 7.55L124.29 7.55 125.94 4.9Q127.94 6.9 130.74 6.9L130.74 6.9Q132.54 6.9 133.81 5.9 135.09 4.9 136.19 2.5L136.19 2.5 137.34-0.05 125.59-26.3 129.29-26.3 139.19-3.95 149.09-26.3ZM167.58 0.25Q163.78 0.25 160.73-1.48 157.69-3.2 155.94-6.25 154.19-9.3 154.19-13.15L154.19-13.15Q154.19-17 155.94-20.05 157.69-23.1 160.73-24.8 163.78-26.5 167.58-26.5L167.58-26.5Q171.38-26.5 174.44-24.8 177.48-23.1 179.21-20.05 180.94-17 180.94-13.15L180.94-13.15Q180.94-9.3 179.21-6.25 177.48-3.2 174.44-1.48 171.38 0.25 167.58 0.25L167.58 0.25ZM167.58-2.9Q170.38-2.9 172.61-4.17 174.83-5.45 176.08-7.8 177.33-10.15 177.33-13.15L177.33-13.15Q177.33-16.15 176.08-18.5 174.83-20.85 172.61-22.13 170.38-23.4 167.58-23.4L167.58-23.4Q164.78-23.4 162.56-22.13 160.33-20.85 159.06-18.5 157.78-16.15 157.78-13.15L157.78-13.15Q157.78-10.15 159.06-7.8 160.33-5.45 162.56-4.17 164.78-2.9 167.58-2.9L167.58-2.9ZM208.33-26.3L211.88-26.3 211.88 0 208.48 0 208.48-4.8Q207.08-2.4 204.63-1.07 202.18 0.25 199.03 0.25L199.03 0.25Q193.88 0.25 190.91-2.63 187.93-5.5 187.93-11.05L187.93-11.05 187.93-26.3 191.48-26.3 191.48-11.4Q191.48-7.25 193.53-5.1 195.58-2.95 199.38-2.95L199.38-2.95Q203.53-2.95 205.93-5.48 208.33-8 208.33-12.5L208.33-12.5 208.33-26.3ZM225.23-21.15Q226.48-23.8 228.95-25.15 231.43-26.5 235.08-26.5L235.08-26.5 235.08-23.05 234.23-23.1Q230.08-23.1 227.73-20.55 225.38-18 225.38-13.4L225.38-13.4 225.38 0 221.83 0 221.83-26.3 225.23-26.3 225.23-21.15ZM248.73 0.25Q245.53 0.25 242.6-0.68 239.68-1.6 238.03-3L238.03-3 239.63-5.8Q241.28-4.5 243.78-3.68 246.28-2.85 248.98-2.85L248.98-2.85Q252.58-2.85 254.3-3.98 256.03-5.1 256.03-7.15L256.03-7.15Q256.03-8.6 255.08-9.43 254.13-10.25 252.68-10.68 251.23-11.1 248.83-11.5L248.83-11.5Q245.63-12.1 243.68-12.73 241.73-13.35 240.35-14.85 238.98-16.35 238.98-19L238.98-19Q238.98-22.3 241.73-24.4 244.48-26.5 249.38-26.5L249.38-26.5Q251.93-26.5 254.48-25.83 257.03-25.15 258.68-24.05L258.68-24.05 257.13-21.2Q253.88-23.45 249.38-23.45L249.38-23.45Q245.98-23.45 244.25-22.25 242.53-21.05 242.53-19.1L242.53-19.1Q242.53-17.6 243.5-16.7 244.48-15.8 245.93-15.38 247.38-14.95 249.93-14.5L249.93-14.5Q253.08-13.9 254.98-13.3 256.88-12.7 258.23-11.25 259.58-9.8 259.58-7.25L259.58-7.25Q259.58-3.8 256.7-1.78 253.83 0.25 248.73 0.25L248.73 0.25ZM289.07-13.15L289.03-12.05 267.03-12.05Q267.32-7.95 270.18-5.43 273.03-2.9 277.38-2.9L277.38-2.9Q279.82-2.9 281.88-3.78 283.93-4.65 285.43-6.35L285.43-6.35 287.43-4.05Q285.68-1.95 283.05-0.85 280.43 0.25 277.28 0.25L277.28 0.25Q273.23 0.25 270.1-1.48 266.98-3.2 265.23-6.25 263.48-9.3 263.48-13.15L263.48-13.15Q263.48-17 265.15-20.05 266.82-23.1 269.75-24.8 272.68-26.5 276.32-26.5L276.32-26.5Q279.98-26.5 282.88-24.8 285.78-23.1 287.43-20.08 289.07-17.05 289.07-13.15L289.07-13.15ZM276.32-23.45Q272.53-23.45 269.95-21.03 267.38-18.6 267.03-14.7L267.03-14.7 285.68-14.7Q285.32-18.6 282.75-21.03 280.18-23.45 276.32-23.45L276.32-23.45ZM296.32 0L296.32-37.1 299.87-37.1 299.87 0 296.32 0ZM318.47-34.35Q316.17-34.35 315-33.1 313.82-31.85 313.82-29.4L313.82-29.4 313.82-26.3 321.92-26.3 321.92-23.3 313.92-23.3 313.92 0 310.37 0 310.37-23.3 305.67-23.3 305.67-26.3 310.37-26.3 310.37-29.55Q310.37-33.15 312.44-35.25 314.52-37.35 318.32-37.35L318.32-37.35Q319.82-37.35 321.22-36.93 322.62-36.5 323.57-35.7L323.57-35.7 322.37-33.05Q320.82-34.35 318.47-34.35L318.47-34.35ZM349.01-26.5Q354.17-26.5 356.92-23.93 359.67-21.35 359.67-16.3L359.67-16.3 359.67 0 356.26 0 356.26-4.1Q355.06-2.05 352.74-0.9 350.42 0.25 347.22 0.25L347.22 0.25Q342.81 0.25 340.22-1.85 337.62-3.95 337.62-7.4L337.62-7.4Q337.62-10.75 340.04-12.8 342.47-14.85 347.76-14.85L347.76-14.85 356.12-14.85 356.12-16.45Q356.12-19.85 354.22-21.63 352.31-23.4 348.67-23.4L348.67-23.4Q346.17-23.4 343.87-22.58 341.56-21.75 339.92-20.3L339.92-20.3 338.31-22.95Q340.31-24.65 343.12-25.58 345.92-26.5 349.01-26.5L349.01-26.5ZM347.76-2.55Q350.76-2.55 352.92-3.93 355.06-5.3 356.12-7.9L356.12-7.9 356.12-12.2 347.87-12.2Q341.12-12.2 341.12-7.5L341.12-7.5Q341.12-5.2 342.87-3.88 344.62-2.55 347.76-2.55L347.76-2.55ZM395.81-26.5Q400.76-26.5 403.69-23.63 406.61-20.75 406.61-15.25L406.61-15.25 406.61 0 403.06 0 403.06-14.9Q403.06-19 401.01-21.15 398.96-23.3 395.16-23.3L395.16-23.3Q390.91-23.3 388.44-20.78 385.96-18.25 385.96-13.8L385.96-13.8 385.96 0 382.41 0 382.41-37.1 385.96-37.1 385.96-21.7Q387.41-24 389.96-25.25 392.51-26.5 395.81-26.5L395.81-26.5ZM427.11 0.25Q423.31 0.25 420.26-1.48 417.21-3.2 415.46-6.25 413.71-9.3 413.71-13.15L413.71-13.15Q413.71-17 415.46-20.05 417.21-23.1 420.26-24.8 423.31-26.5 427.11-26.5L427.11-26.5Q430.91-26.5 433.96-24.8 437.01-23.1 438.73-20.05 440.46-17 440.46-13.15L440.46-13.15Q440.46-9.3 438.73-6.25 437.01-3.2 433.96-1.48 430.91 0.25 427.11 0.25L427.11 0.25ZM427.11-2.9Q429.91-2.9 432.13-4.17 434.36-5.45 435.61-7.8 436.86-10.15 436.86-13.15L436.86-13.15Q436.86-16.15 435.61-18.5 434.36-20.85 432.13-22.13 429.91-23.4 427.11-23.4L427.11-23.4Q424.31-23.4 422.08-22.13 419.86-20.85 418.58-18.5 417.31-16.15 417.31-13.15L417.31-13.15Q417.31-10.15 418.58-7.8 419.86-5.45 422.08-4.17 424.31-2.9 427.11-2.9L427.11-2.9ZM480.51-26.5Q485.46-26.5 488.28-23.65 491.11-20.8 491.11-15.25L491.11-15.25 491.11 0 487.56 0 487.56-14.9Q487.56-19 485.58-21.15 483.61-23.3 480.01-23.3L480.01-23.3Q475.91-23.3 473.56-20.78 471.21-18.25 471.21-13.8L471.21-13.8 471.21 0 467.66 0 467.66-14.9Q467.66-19 465.68-21.15 463.71-23.3 460.06-23.3L460.06-23.3Q456.01-23.3 453.63-20.78 451.26-18.25 451.26-13.8L451.26-13.8 451.26 0 447.71 0 447.71-26.3 451.11-26.3 451.11-21.5Q452.51-23.9 455.01-25.2 457.51-26.5 460.76-26.5L460.76-26.5Q464.06-26.5 466.48-25.1 468.91-23.7 470.11-20.95L470.11-20.95Q471.56-23.55 474.28-25.03 477.01-26.5 480.51-26.5L480.51-26.5ZM523.8-13.15L523.75-12.05 501.75-12.05Q502.05-7.95 504.9-5.43 507.75-2.9 512.1-2.9L512.1-2.9Q514.55-2.9 516.6-3.78 518.65-4.65 520.15-6.35L520.15-6.35 522.15-4.05Q520.4-1.95 517.78-0.85 515.15 0.25 512 0.25L512 0.25Q507.95 0.25 504.83-1.48 501.7-3.2 499.95-6.25 498.2-9.3 498.2-13.15L498.2-13.15Q498.2-17 499.88-20.05 501.55-23.1 504.48-24.8 507.4-26.5 511.05-26.5L511.05-26.5Q514.7-26.5 517.6-24.8 520.5-23.1 522.15-20.08 523.8-17.05 523.8-13.15L523.8-13.15ZM511.05-23.45Q507.25-23.45 504.68-21.03 502.1-18.6 501.75-14.7L501.75-14.7 520.4-14.7Q520.05-18.6 517.48-21.03 514.9-23.45 511.05-23.45L511.05-23.45Z" opacity="1" transform="matrix(1,0,0,1,0,0)" fill="#61777f" class="slogan-text-1" data-fill-palette-color="secondary" id="text-1"></path></svg></g></svg></g></svg></g></svg></g><g transform="matrix(1,0,0,1,0,0.3005777514550303)"><svg viewBox="0 0 122.97127053457565 120.23110058201539" height="120.23110058201539" width="122.97127053457565"><g><svg xmlns="http://www.w3.org/2000/svg" xmlns:xlink="http://www.w3.org/1999/xlink" version="1.1" x="0" y="0" viewBox="38.29037491769095 38.5508679146366 23.420000164473834 22.898132085363407" enable-background="new 0 0 100 100" xml:space="preserve" height="120.23110058201539" width="122.97127053457565" class="icon-icon-0" data-fill-palette-color="accent" id="icon-0"><path fill="#61777f" d="M61.283 49.143L51.102 38.961c-0.317-0.317-0.74-0.439-1.154-0.404-0.414-0.036-0.839 0.085-1.156 0.403L38.717 49.036c-0.569 0.569-0.569 1.493 0.001 2.062 0.284 0.285 0.657 0.427 1.03 0.427s0.747-0.143 1.031-0.427l0.105-0.105v8.999c0 0.805 0.653 1.457 1.458 1.457h12.004 3.203c0.806 0 1.458-0.652 1.458-1.457v-9l0.213 0.212c0.285 0.285 0.658 0.428 1.031 0.428s0.746-0.143 1.031-0.428C61.853 50.635 61.853 49.712 61.283 49.143zM56.092 58.532h-1.745H43.801V48.076l6.146-6.146 6.146 6.146V58.532z" data-fill-palette-color="accent"></path></svg></g></svg></g></svg></g><defs></defs></svg><rect width="395.52" height="84.80525008067916" fill="none" stroke="none" visibility="hidden"></rect></g></svg></g></svg>